<svg xmlns="http://www.w3.org/2000/svg" viewBox="0 0 407.8 87.2"><path fill="#FFF" d="M209.4 5.5c-2.3 0-4.5.5-6.7 1.4-2.2.9-4 2.2-5.5 3.8-1.4 1.6-2.6 3.6-3.4 5.9-.8 2.4-1.2 4.9-1.2 7.4 0 2.7.5 5.4 1.4 8.1.9 2.6 2.2 5 4 7 3 3.5 6.9 5.3 11.7 5.3.9 0 1.9-.1 2.8-.2 0 0 .4.7 1.5 2.3 1.1 1.6 2.5 2 2.5 2-2.2.6-4.6 1-7 1-3.4 0-6.6-.6-9.5-1.9-2.9-1.3-5.5-3-7.7-5.2s-3.9-4.8-5.2-7.7c-1.3-3-1.9-6.2-1.9-9.6 0-3.5.6-6.8 1.9-9.9 1.3-3 3-5.7 5.3-7.9s4.9-4 8-5.2c3.1-1.3 6.4-1.9 10-1.9m0 .2c3.2 0 6.2.6 9.3 1.9 3 1.2 5.6 2.9 7.7 5.2 1.4 1.5 2.7 3.2 3.7 5.1 0 0-1.9-.6-3.6.4-1.6 1-2.2 4.8-2.3 4.6-.8-2.2-1.8-4.1-3.2-5.8-3.2-4.1-7.4-6.2-12.6-6.2M3.2 56.5h404.5v1.6H3.2zM166.9 66.4c2.5.1 4.4.8 5.6 2.1 1.3 1.3 1.9 3.4 1.9 6.1 0 2.7-.6 4.8-1.9 6.1-1.3 1.3-3.1 2-5.6 2.1h-5.6V66.4h5.6zm-.8 15.1c1.2 0 2.2-.1 3-.4.8-.3 1.5-.7 2.1-1.2.5-.6 1-1.3 1.2-2.1.3-.9.4-1.9.4-3.2 0-1.2-.1-2.3-.4-3.2-.3-.9-.7-1.6-1.2-2.1-.5-.6-1.2-1-2.1-1.2-.8-.3-1.9-.4-3-.4h-3.3v13.8h3.3zM177.2 66.4v2.3h-1.4v-2.3h1.4zm0 4.5v11.9h-1.4V70.9h1.4zM180.2 70.9l3.7 10.4 3.7-10.4h1.5l-4.4 11.9h-1.5l-4.6-11.9h1.6zM191.2 78.9c.1.6.4 1.1.7 1.5.3.4.7.8 1.2 1.1.5.3 1.1.4 1.8.4 1.1 0 1.9-.3 2.5-.8.6-.6 1-1.3 1.2-2.2h1.4c-.3 1.4-.9 2.4-1.7 3.1-.8.7-2 1.1-3.5 1.1-.9 0-1.7-.2-2.4-.5s-1.2-.8-1.7-1.4c-.4-.6-.7-1.2-.9-2-.2-.8-.3-1.6-.3-2.4 0-.8.1-1.6.3-2.3.2-.8.5-1.4.9-2 .4-.6 1-1.1 1.7-1.4.7-.4 1.5-.5 2.4-.5.9 0 1.8.2 2.4.6.7.4 1.2.9 1.6 1.5.4.6.7 1.3.9 2.1.2.8.3 1.6.2 2.5h-9.1c.1.5.2 1.1.4 1.6zm7.1-4.4c-.2-.5-.4-1-.7-1.3-.3-.4-.7-.7-1.2-.9-.5-.2-1-.4-1.6-.4-.6 0-1.1.1-1.6.4-.5.2-.8.6-1.2.9-.3.4-.6.8-.8 1.4-.2.5-.3 1-.4 1.6h7.6c.2-.7.1-1.2-.1-1.7zM202.8 70.9v2.8c.4-1 .9-1.7 1.7-2.2.8-.5 1.7-.8 2.8-.7v1.5c-.7 0-1.3.1-1.8.3-.5.2-1 .5-1.4.9-.4.4-.7.8-.9 1.4-.2.5-.3 1.1-.3 1.7v6.3h-1.4v-12h1.3zM215.5 73.3c-.2-.3-.4-.6-.7-.8-.3-.2-.6-.4-1-.5-.4-.1-.8-.1-1.2-.1-.3 0-.6 0-1 .1l-.9.3c-.3.2-.5.4-.7.6-.2.3-.3.6-.3 1 0 .3.1.6.2.8l.6.6c.2.2.5.3.8.4.3.1.6.2.8.2l1.9.4 1.2.3c.4.2.8.4 1.1.6.3.3.6.6.8 1 .2.4.3.8.3 1.4 0 .6-.1 1.2-.4 1.6-.3.5-.7.8-1.1 1.1-.5.3-1 .5-1.5.6-.6.1-1.1.2-1.7.2-1.4 0-2.5-.3-3.4-1-.9-.7-1.4-1.7-1.5-3.2h1.4c.1 1 .4 1.7 1.1 2.2.6.5 1.5.7 2.4.7.4 0 .7 0 1.1-.1.4-.1.7-.2 1-.4.3-.2.6-.4.8-.7.2-.3.3-.6.3-1s-.1-.6-.2-.9c-.1-.2-.3-.4-.6-.6-.2-.2-.5-.3-.8-.4l-.9-.3-1.9-.4c-.5-.1-.9-.3-1.3-.4-.4-.2-.7-.4-1-.6-.3-.2-.5-.5-.7-.9-.2-.3-.3-.8-.3-1.3 0-.6.1-1.1.4-1.5.3-.4.6-.8 1-1 .4-.3.9-.5 1.4-.6.5-.1 1-.2 1.6-.2.6 0 1.1.1 1.7.2.5.2 1 .4 1.4.7.4.3.7.7.9 1.2.2.5.4 1 .4 1.7h-1.4c.2-.3.1-.7-.1-1zM220.7 66.4v2.3h-1.4v-2.3h1.4zm0 4.5v11.9h-1.4V70.9h1.4zM227.7 70.9v1.2h-2.4v8c0 .5.1.8.2 1.1.1.3.5.4 1 .4.4 0 .8 0 1.2-.1v1.2h-1.2c-1 0-1.6-.2-2-.6-.4-.4-.6-1.1-.5-2.1v-8.1h-2.1v-1.2h2.1v-3.6h1.4v3.6h2.3zM230 70.9l3.9 10.1 3.6-10.1h1.4l-5.1 13.7c-.2.5-.4.9-.6 1.3-.2.3-.4.6-.6.8-.2.2-.5.3-.8.4-.3.1-.7.1-1.1.1h-.7c-.2 0-.3 0-.4-.1v-1.2c.2 0 .3.1.5.1h.5c.3 0 .6 0 .8-.1.2-.1.4-.2.5-.4.2-.2.3-.4.4-.6.1-.2.2-.5.3-.8l.5-1.3-4.7-11.8h1.6zM237.6 80.4h1.9v2.4h-1.9v-2.4zM64.6 66.4c2.5.1 4.4.8 5.6 2.1 1.3 1.3 1.9 3.4 1.9 6.1 0 2.7-.6 4.8-1.9 6.1-1.3 1.3-3.1 2-5.6 2.1H59V66.4h5.6zm-.7 15.1c1.2 0 2.2-.1 3-.4.8-.3 1.5-.7 2.1-1.2.5-.6 1-1.3 1.2-2.1.3-.9.4-1.9.4-3.2 0-1.2-.1-2.3-.4-3.2-.3-.9-.7-1.6-1.2-2.1-.5-.6-1.2-1-2.1-1.2-.8-.3-1.9-.4-3-.4h-3.3v13.8h3.3zM74.9 66.4v2.3h-1.4v-2.3h1.4zm0 4.5v11.9h-1.4V70.9h1.4z"/><g fill="#FFF"><path d="M84 73.3c-.2-.3-.4-.6-.7-.8-.3-.2-.6-.4-1-.5-.4-.1-.8-.1-1.2-.1-.3 0-.6 0-1 .1l-.9.3c-.3.2-.5.4-.7.6-.2.3-.3.6-.3 1 0 .3.1.6.2.8l.6.6c.2.2.5.3.8.4.3.1.6.2.8.2l1.9.4 1.2.3c.4.2.8.4 1.1.6.3.3.6.6.8 1 .2.4.3.8.3 1.4 0 .6-.1 1.2-.4 1.6-.3.5-.7.8-1.1 1.1-.5.3-1 .5-1.5.6-.6.1-1.1.2-1.7.2-1.4 0-2.5-.3-3.4-1-.9-.7-1.4-1.7-1.5-3.2H78c.1 1 .4 1.7 1.1 2.2.6.5 1.5.7 2.4.7.4 0 .7 0 1.1-.1.4-.1.7-.2 1-.4.3-.2.6-.4.8-.7.2-.3.3-.6.3-1s-.1-.6-.2-.9c-.1-.2-.3-.4-.6-.6-.2-.2-.5-.3-.8-.4-.3-.1-.6-.2-1-.3l-1.9-.4c-.5-.1-.9-.3-1.3-.4-.4-.2-.7-.4-1-.6-.3-.2-.5-.5-.7-.9-.2-.3-.3-.8-.3-1.3 0-.6.1-1.1.4-1.5.3-.4.6-.8 1-1 .4-.3.9-.5 1.4-.6.5-.1 1-.2 1.6-.2.6 0 1.1.1 1.7.2.5.2 1 .4 1.3.7.4.3.7.7.9 1.2.2.5.4 1 .4 1.7h-1.4c.1-.3 0-.7-.2-1zM95.5 72.6c-.5-.5-1.3-.8-2.2-.8-.7 0-1.3.1-1.8.4-.5.3-.9.7-1.3 1.2-.3.5-.6 1-.8 1.6-.2.6-.3 1.2-.3 1.9 0 .6.1 1.3.3 1.9.2.6.4 1.1.8 1.6.3.5.8.9 1.3 1.2.5.3 1.1.4 1.8.4.4 0 .9-.1 1.3-.3.4-.2.7-.4 1.1-.7.3-.3.6-.7.8-1.1.2-.4.3-.9.4-1.4h1.4c-.2 1.4-.7 2.6-1.6 3.4-.9.8-2 1.2-3.3 1.2-.9 0-1.7-.2-2.4-.5s-1.3-.8-1.7-1.3c-.5-.6-.8-1.2-1.1-2-.2-.8-.4-1.6-.4-2.4 0-.9.1-1.7.4-2.4.2-.8.6-1.4 1.1-2 .5-.6 1.1-1 1.7-1.4.7-.3 1.5-.5 2.4-.5 1.3 0 2.3.3 3.2 1 .9.7 1.4 1.7 1.6 3.1h-1.4c-.4-.9-.8-1.6-1.3-2.1z"/></g><path fill="#FFF" d="M107.5 71.1c.7.3 1.3.8 1.7 1.4.5.6.8 1.2 1.1 2 .2.8.4 1.6.4 2.4 0 .9-.1 1.7-.4 2.4-.2.8-.6 1.4-1.1 2-.5.6-1.1 1-1.7 1.3-.7.3-1.5.5-2.4.5-.9 0-1.7-.2-2.4-.5s-1.3-.8-1.8-1.3c-.5-.6-.8-1.2-1.1-2-.2-.8-.4-1.6-.4-2.4 0-.9.1-1.7.4-2.4.2-.8.6-1.4 1.1-2 .5-.6 1.1-1 1.8-1.4.7-.3 1.5-.5 2.4-.5.9 0 1.7.2 2.4.5zm-4.2 1.2c-.5.3-.9.7-1.3 1.2-.3.5-.6 1-.8 1.6-.2.6-.3 1.2-.3 1.9 0 .6.1 1.3.3 1.9.2.6.4 1.1.8 1.6.3.5.8.9 1.3 1.2.5.3 1.1.4 1.8.4s1.3-.1 1.8-.4c.5-.3.9-.7 1.3-1.2.3-.5.6-1 .8-1.6.2-.6.3-1.2.3-1.9 0-.6-.1-1.2-.3-1.9-.2-.6-.4-1.1-.8-1.6-.3-.5-.8-.9-1.3-1.2-.5-.3-1.1-.4-1.8-.4-.7-.1-1.3.1-1.8.4zM112.7 70.9l3.7 10.4 3.7-10.4h1.5l-4.4 11.9h-1.5l-4.6-11.9h1.6zM123.6 78.9c.1.6.4 1.1.7 1.5.3.4.7.8 1.2 1.1.5.3 1.1.4 1.8.4 1.1 0 1.9-.3 2.5-.8.6-.6 1-1.3 1.2-2.2h1.4c-.3 1.4-.9 2.4-1.7 3.1-.8.7-2 1.1-3.5 1.1-.9 0-1.7-.2-2.4-.5s-1.2-.8-1.7-1.4c-.4-.6-.7-1.2-.9-2-.2-.8-.3-1.6-.3-2.4 0-.8.1-1.6.3-2.3.2-.8.5-1.4.9-2 .4-.6 1-1.1 1.7-1.4.7-.4 1.5-.5 2.4-.5.9 0 1.8.2 2.4.6.7.4 1.2.9 1.6 1.5.4.6.7 1.3.9 2.1.2.8.3 1.6.2 2.5h-9.1c.2.5.2 1.1.4 1.6zm7.1-4.4c-.2-.5-.4-1-.7-1.3-.3-.4-.7-.7-1.2-.9-.5-.2-1-.4-1.6-.4-.6 0-1.1.1-1.6.4-.5.2-.8.6-1.2.9-.3.4-.6.8-.8 1.4-.2.5-.3 1-.4 1.6h7.6c.2-.7.1-1.2-.1-1.7zM135.3 70.9v2.8c.4-1 .9-1.7 1.7-2.2.8-.5 1.7-.8 2.8-.7v1.5c-.7 0-1.3.1-1.8.3-.5.2-1 .5-1.4.9-.4.4-.7.8-.9 1.4-.2.5-.3 1.1-.3 1.7v6.3H134v-12h1.3z"/><path fill="#FFF" d="M141.3 70.9l3.9 10.1 3.6-10.1h1.4l-5.1 13.7c-.2.5-.4.9-.6 1.3-.2.3-.4.6-.6.8-.2.2-.5.3-.8.4-.3.1-.7.1-1.1.1h-.7c-.2 0-.3 0-.4-.1v-1.2c.2 0 .3.1.5.1h.5c.3 0 .6 0 .8-.1.2-.1.4-.2.5-.4.2-.2.3-.4.4-.6.1-.2.2-.5.3-.8l.5-1.3-4.7-11.8h1.6zM149.4 80.4h1.9v2.4h-1.9v-2.4z"/><g><path fill="#FFF" d="M255.4 66.4c2.5.1 4.4.8 5.6 2.1 1.3 1.3 1.9 3.4 1.9 6.1 0 2.7-.6 4.8-1.9 6.1-1.3 1.3-3.1 2-5.6 2.1h-5.6V66.4h5.6zm-.8 15.1c1.2 0 2.2-.1 3-.4.8-.3 1.5-.7 2.1-1.2.6-.6 1-1.3 1.2-2.1.3-.9.4-1.9.4-3.2 0-1.2-.1-2.3-.4-3.2-.3-.9-.7-1.6-1.2-2.1-.5-.6-1.2-1-2.1-1.2-.8-.3-1.9-.4-3-.4h-3.3v13.8h3.3zM265.7 66.4v2.3h-1.4v-2.3h1.4zm0 4.5v11.9h-1.4V70.9h1.4z"/><g fill="#FFF"><path d="M274.8 73.3c-.2-.3-.4-.6-.7-.8-.3-.2-.6-.4-1-.5-.4-.1-.8-.1-1.2-.1-.3 0-.6 0-1 .1l-.9.3c-.3.2-.5.4-.7.6-.2.3-.3.6-.3 1 0 .3.1.6.2.8l.6.6c.2.2.5.3.8.4.3.1.6.2.8.2l1.9.4 1.2.3c.4.2.8.4 1.1.6.3.3.6.6.8 1 .2.4.3.8.3 1.4 0 .6-.1 1.2-.4 1.6-.3.5-.7.8-1.1 1.1-.5.3-1 .5-1.5.6-.6.1-1.1.2-1.7.2-1.4 0-2.5-.3-3.4-1-.9-.7-1.4-1.7-1.5-3.2h1.4c.1 1 .4 1.7 1.1 2.2.6.5 1.5.7 2.4.7.4 0 .7 0 1.1-.1.4-.1.7-.2 1-.4.3-.2.6-.4.8-.7.2-.3.3-.6.3-1s-.1-.6-.2-.9c-.1-.2-.3-.4-.6-.6-.2-.2-.5-.3-.8-.4l-.9-.3-1.9-.4c-.5-.1-.9-.3-1.3-.4-.4-.2-.7-.4-1-.6-.3-.2-.5-.5-.7-.9-.2-.3-.3-.8-.3-1.3 0-.6.1-1.1.4-1.5.3-.4.6-.8 1-1 .4-.3.9-.5 1.4-.6.5-.1 1-.2 1.6-.2.6 0 1.1.1 1.7.2.5.2 1 .4 1.4.7.4.3.7.7.9 1.2.2.5.4 1 .4 1.7H275c0-.3-.1-.7-.2-1zM283.7 70.9v1.2h-2.4v8c0 .5.1.8.2 1.1.1.3.5.4 1 .4.4 0 .8 0 1.2-.1v1.2h-1.2c-1 0-1.6-.2-2-.6-.4-.4-.6-1.1-.5-2.1v-8.1h-2.1v-1.2h2.1v-3.6h1.4v3.6h2.3zM287.2 66.4v2.3h-1.4v-2.3h1.4zm0 4.5v11.9h-1.4V70.9h1.4z"/></g><path fill="#FFF" d="M291.4 70.9V73c.3-.7.8-1.3 1.5-1.7.7-.4 1.5-.7 2.3-.7.8 0 1.5.1 2.1.3.6.2 1 .5 1.3.9.3.4.6.9.7 1.4.1.6.2 1.2.2 1.9v7.7h-1.4v-7.4c0-.5 0-1-.1-1.4-.1-.4-.3-.8-.5-1.1-.2-.3-.5-.6-.9-.8-.4-.2-.9-.3-1.5-.3s-1.1.1-1.5.3c-.5.2-.8.5-1.1.9-.3.4-.6.8-.7 1.3-.2.5-.3 1-.3 1.6v6.9h-1.4V70.9h1.3z"/><g fill="#FFF"><path d="M308.6 72.6c-.5-.5-1.3-.8-2.2-.8-.7 0-1.3.1-1.8.4-.5.3-.9.7-1.3 1.2-.3.5-.6 1-.8 1.6-.2.6-.3 1.2-.3 1.9 0 .6.1 1.3.3 1.9.2.6.4 1.1.8 1.6.3.5.8.9 1.3 1.2.5.3 1.1.4 1.8.4.4 0 .9-.1 1.3-.3.4-.2.7-.4 1.1-.7.3-.3.6-.7.8-1.1.2-.4.3-.9.4-1.4h1.4c-.2 1.4-.7 2.6-1.6 3.4-.9.8-2 1.2-3.3 1.2-.9 0-1.7-.2-2.4-.5s-1.3-.8-1.8-1.3c-.5-.6-.8-1.2-1.1-2-.2-.8-.4-1.6-.4-2.4 0-.9.1-1.7.4-2.4.2-.8.6-1.4 1.1-2 .5-.6 1.1-1 1.8-1.4.7-.3 1.5-.5 2.4-.5 1.3 0 2.3.3 3.2 1 .9.7 1.4 1.7 1.6 3.1h-1.4c-.4-.9-.8-1.6-1.3-2.1zM317.9 70.9v1.2h-2.4v8c0 .5.1.8.2 1.1.1.3.5.4 1 .4.4 0 .8 0 1.2-.1v1.2h-1.2c-1 0-1.6-.2-2-.6-.4-.4-.6-1.1-.5-2.1v-8.1H312v-1.2h2.1v-3.6h1.4v3.6h2.4z"/></g><path fill="#FFF" d="M321.4 66.4v2.3H320v-2.3h1.4zm0 4.5v11.9H320V70.9h1.4zM331.1 71.1c.7.3 1.3.8 1.8 1.4.5.6.8 1.2 1.1 2 .2.8.4 1.6.4 2.4 0 .9-.1 1.7-.4 2.4-.2.8-.6 1.4-1.1 2-.5.6-1.1 1-1.8 1.3-.7.3-1.5.5-2.4.5-.9 0-1.7-.2-2.4-.5s-1.3-.8-1.8-1.3c-.5-.6-.8-1.2-1.1-2-.2-.8-.4-1.6-.4-2.4 0-.9.1-1.7.4-2.4.2-.8.6-1.4 1.1-2 .5-.6 1.1-1 1.8-1.4.7-.3 1.5-.5 2.4-.5.9 0 1.7.2 2.4.5zm-4.2 1.2c-.5.3-1 .7-1.3 1.2-.3.5-.6 1-.8 1.6-.2.6-.3 1.2-.3 1.9 0 .6.1 1.3.3 1.9.2.6.4 1.1.8 1.6.3.5.8.9 1.3 1.2.5.3 1.1.4 1.8.4s1.3-.1 1.8-.4c.5-.3 1-.7 1.3-1.2.3-.5.6-1 .8-1.6.2-.6.3-1.2.3-1.9 0-.6-.1-1.2-.3-1.9-.2-.6-.4-1.1-.8-1.6-.3-.5-.8-.9-1.3-1.2-.5-.3-1.1-.4-1.8-.4-.6-.1-1.2.1-1.8.4zM337 70.9V73c.3-.7.8-1.3 1.5-1.7.7-.4 1.5-.7 2.3-.7.8 0 1.5.1 2.1.3.6.2 1 .5 1.3.9.3.4.6.9.7 1.4.1.6.2 1.2.2 1.9v7.7h-1.4v-7.4c0-.5 0-1-.1-1.4-.1-.4-.3-.8-.5-1.1-.2-.3-.5-.6-.9-.8-.4-.2-.9-.3-1.5-.3s-1.1.1-1.5.3c-.5.2-.8.5-1.1.9-.3.4-.6.8-.7 1.3-.2.5-.3 1-.3 1.6v6.9h-1.4V70.9h1.3zM346.9 80.4h1.9v2.4h-1.9v-2.4z"/></g><g fill="#FFF"><path d="M273.4 1.5v6.8c1.5-2 4-2.4 7.1-2.4l7.5-.1v42.5h6.3V5.8l7.8.1c3.2 0 5.6.4 7.1 2.4V1.5h-35.8zM304.7 48.3l14.2-40.7c.4-1.3.7-2.4.7-3.1 0-.7-.2-1.6-.9-2.5l-.7-.5h10.3l16.3 46.9H337l-5.7-17.3h-14.2l-5.3 17.3h-7.1zm24.9-22.6l-5.1-16.6-5.6 16.6h10.7z"/></g><path fill="#FFF" d="M31.4 6.4h-21v13.8h17.8v5.1H10.4v23H3.2V10.5c0-1.5 0-2.8-.1-3.8-.2-.9-.3-1.7-.5-2.4-.3-.7-.6-1.2-1-1.7-.4-.4-.9-.8-1.6-1.2h31.4v5zM51.7 1.4c2.2 0 4.1.2 5.6.7 1.6.4 3 1.1 4.2 2.1 1.3 1.1 2.4 2.4 3.2 4.1.8 1.6 1.2 3.3 1.2 5 0 1.3-.3 2.7-.8 4-.5 1.3-1.3 2.5-2.2 3.6-1 1.1-2.1 2-3.4 2.8-1.3.8-2.8 1.4-4.3 1.8 2.5 3.6 4.7 6.7 6.6 9.2 1.9 2.5 3.7 4.7 5.3 6.5 1.6 1.8 3 3.3 4.4 4.4 1.3 1.1 3 2.1 4.3 2.7 0 0-2 .5-5 .4-3-.1-5-.6-6.2-1.3-.8-.5-1.6-1.2-2.4-2.2-.8-.9-1.8-2.1-3-3.5-2-2.5-4-5.2-6-8.3-2-3-3.9-6.2-5.7-9.5 7.4-1.3 11.1-4.7 11.1-10.2 0-2.3-.7-4.2-2.2-5.7-1.7-1.3-3.6-2-6-2-.7 0-3.5-.1-4.7 0v42.4H39V10.7c0-1.5 0-2.8-.1-3.8s-.2-1.8-.4-2.5-.5-1.2-.9-1.6c-.4-.4-1.1-.9-1.7-1.3l15.8-.1zM140.2 48.3c.7-.5 1.3-1 1.8-1.5s.8-1.1 1.1-1.7c.2-.6.4-1.4.5-2.2.1-.8.2-1.8.2-3V9.8c0-1.2-.1-2.2-.2-3-.1-.8-.3-1.6-.6-2.2-.3-.6-.6-1.2-1.1-1.7-.4-.5-1-1-1.7-1.4h9.6c0 .2.2.3.2.4.1.1.1.3.3.4.1.2.2.4.4.7.2.3.4.6.7 1.1l24.5 33.6V9.8c0-1.2-.1-2.2-.2-3-.1-.8-.3-1.6-.6-2.2-.3-.6-.6-1.2-1.1-1.7-.5-.5-1-1-1.7-1.5h11.8c-.7.5-1.3 1-1.8 1.5s-.8 1.1-1.1 1.7c-.3.6-.4 1.4-.5 2.2-.1.8-.2 1.8-.2 3v38.6h-4.7c-1-1.7-27.5-36.9-27.5-36.9v28.4c0 7.2 1.7 8.4 1.7 8.4h-9.8zM102.1 40.2v8.1H76.8V10.5c0-1.5 0-2.8-.1-3.8s-.2-1.8-.5-2.5c-.2-.5-.8-1.5-1-1.7-.4-.4-.9-.8-1.6-1.2h28.6v5h-.1v.1H84v13.7h15v5.1H84v17.4h11.4c2.1.1 4.7-.6 6.7-2.4M136.2 31.7s-.1 0 0 0c-2-4.6-6.3-6.8-11.7-9.8-.3-.2-.7-.3-1-.5-1.6-.8-2.9-1.6-4-2.2-1.3-.8-2.3-1.5-3.1-2.2-.7-.7-1.3-1.4-1.5-2.2-.3-.7-.4-1.6-.4-2.5 0-2.1.8-4.6 2.4-5.9 1.6-1.3 3.8-1.9 6.4-1.9 5.4 0 8 1.3 10.6 3.8V1.6c-1.8-.6-3.5-1-5.2-1.2-1.6-.3-3.3-.4-5.1-.4-2.5 0-4.9.3-6.9.9-2.1.6-3.8 1.5-5.3 2.6-1.5 1.2-2.6 2.6-3.4 4.2-.8 1.6-1.2 3.5-1.2 5.5 0 3.5 1.9 6.2 3.5 7.7.5.5 1 1 1.5 1.4.5.4 1.2.9 1.9 1.3.7.5 1.6.9 2.5 1.5 1 .5 2.1 1.1 3.4 1.8 1.4.7 2.5 1.3 3.4 1.8.6.3 1.1.6 1.5.9 1.4.8 2.4 1.5 3.2 2.2l.6.6c.4.4.7.9 1 1.5v.1c.3.7.4 2.5.4 3.5 0 2.1-1.4 4.6-3.5 5.9-1.8 1.2-4.1 1.7-6.9 1.7-2.1 0-4.1-.4-6.1-1.3-1.9-.9-3.7-2.1-5.2-3.6v7.9c1.9.6 3.7 1 5.5 1.2 1.7.3 3.5.4 5.4.4 2.7 0 8.7 0 12.7-3 3.5-2.6 5.1-5.9 5.2-10.2.4-1.7 0-3.2-.6-4.8M407.6 40.2v8.1h-25.3V10.5c0-1.5 0-2.8-.1-3.8s-.2-1.8-.5-2.5c-.2-.5-.8-1.5-1-1.7-.4-.4-.9-.8-1.6-1.2h28.6v5.1h-18.2v13.7h15v5.1h-15v17.4h11.4c2.1.1 4.7-.6 6.7-2.4M271 31.7s-.1 0 0 0c-2-4.6-6.3-6.8-11.7-9.8-.3-.2-.7-.3-1-.5-1.6-.8-2.9-1.6-4-2.2-1.3-.8-2.3-1.5-3.1-2.2-.7-.7-1.3-1.4-1.5-2.2-.3-.7-.4-1.6-.4-2.5 0-2.1.8-4.6 2.4-5.9 1.6-1.3 3.8-1.9 6.4-1.9 5.4 0 8 1.3 10.6 3.8V1.6c-1.8-.6-3.5-1-5.2-1.2-1.5-.3-3.2-.4-5-.4-2.5 0-4.9.3-6.9.9-2.1.6-3.8 1.5-5.3 2.6-1.5 1.2-2.6 2.6-3.4 4.2-.8 1.6-1.2 3.5-1.2 5.5 0 3.5 1.9 6.2 3.5 7.7.5.5 1 1 1.5 1.4.5.4 1.2.9 1.9 1.3.7.5 1.6.9 2.5 1.5 1 .5 2.1 1.1 3.4 1.8 1.4.7 2.5 1.3 3.4 1.8.6.3 1.1.6 1.5.9 1.4.8 2.4 1.5 3.2 2.2l.6.6c.4.4.7.9 1 1.5v.1c.3.7.4 2.5.4 3.5 0 2.1-1.4 4.6-3.5 5.9-1.8 1.2-4.1 1.7-6.9 1.7-2.1 0-4.1-.4-6.1-1.3-1.9-.9-3.7-2.1-5.2-3.6v7.9c1.9.6 3.8 1 5.5 1.2 1.7.3 3.5.4 5.4.4 2.7 0 8.7 0 12.7-3 3.5-2.6 5.1-5.9 5.2-10.2.3-1.7-.1-3.2-.7-4.8M339.2 1.4v6.8c1.5-2 4-2.4 7.1-2.4l7.5-.1-.1 42.5h6.3V5.7l7.8.1c3.2 0 5.6.4 7.2 2.4V1.4h-35.8z"/><g fill="#FFF"><path d="M205.9 30.7c-.8.3-1.5 2-1 3.3.6 1.7 2.7 4.1 4.9 4.6 1.8.4 4.5-.6 4.9-2.5.4-1.9-.4-3.4-2.2-3.8-1.8-.5-4.2-1.2-4.8-1.4-.9-.4-1.8-.2-1.8-.2M210.5 18c-1-.5-2.7.6-3 2.8-.3 2.2.4 5.5 2.4 7.1 1.9 1.5 4.8.8 5.7-.7.9-1.5.2-3.7-1.1-4.8-1.2-1.2-2.1-2.4-2.5-3-.6-.9-1.5-1.4-1.5-1.4M214.9 13.9c-.4.7.2 1.8.6 2.7.4.9.7 2.9 1 4 .2 1.2 1.9 3.4 4.2 2.5 2.3-.9 3.3-3.7 2.7-5.2-.7-1.5-2.2-3.5-4.1-4.4-1.9-1-3.6-1.1-4.4.4M227 18.9c-.3 1.1-1.1 2.3-1 3.4 0 1 .7 2.9 2.5 3.5 1.8.6 3.5-.3 4.5-2.3 1-2 .7-4.9-.2-6.2-.9-1.3-2.7-2.7-3.8-2.4-1.1.3-1.3 1.2-1.4 2-.2.8-.6 2-.6 2M225.9 41.8c.9-.6 4.7-2.4 6.1-2.9 1.4-.6 3-1.1 3.9-4.1.9-2.7-.3-4.9-1.6-5.4s-4.7-.8-6.4-1.7c-1.7-.9-1.6-2.3-3.3-2.9-1.7-.6-4.7.2-6.2 1.4-1.5 1.1-3.2 3.8-2.4 6.2.8 2.4 1.1 3.6.3 5.4-.8 1.8-1.8 3.8-1.4 5.2.4 1.4 2.2 4 3.9 4.4 1.7.4 3.5-1.2 4.4-2.3.8-1.2 1.3-2.3 2.7-3.3"/></g></svg>